<?xml version="1.0" encoding="utf-8"?>
<!-- Generator: Adobe Illustrator 25.4.1, SVG Export Plug-In . SVG Version: 6.00 Build 0)  -->
<svg version="1.1" id="Capa_1" xmlns="http://www.w3.org/2000/svg" xmlns:xlink="http://www.w3.org/1999/xlink" x="0px" y="0px"
	 viewBox="0 0 1440 975.47" style="enable-background:new 0 0 1440 975.47;" xml:space="preserve">
<style type="text/css">
	.st0{fill:#1D1D1B;}
	.st1{fill:#FFFFFF;}
	.st2{fill:none;}
	.st3{fill:#D92CF9;}
	.st4{fill:url(#SVGID_1_);}
	.st5{fill:url(#SVGID_00000082369481746113401080000002380094555523408539_);}
	.st6{fill:url(#SVGID_00000155842314554045931530000014975984748443879863_);}
</style>
<g>
	<path class="st1" d="M439.47,65.36v112.01h-18v-47.54h-55.08v47.54h-18V65.36h18v47.24h55.08V65.36H439.47z"/>
	<path class="st1" d="M454.09,144.13c0-6.56,1.56-12.46,4.69-17.69c3.13-5.23,7.46-9.38,13-12.46c5.54-3.08,11.9-4.62,19.08-4.62
		c7.18,0,13.46,1.54,18.85,4.62c5.39,3.08,9.56,7.23,12.54,12.46c2.97,5.23,4.46,11.08,4.46,17.54c0,6.67-1.49,12.64-4.46,17.92
		c-2.98,5.28-7.15,9.46-12.54,12.54c-5.38,3.08-11.82,4.62-19.31,4.62c-6.98,0-13.21-1.41-18.69-4.23
		c-5.49-2.82-9.8-6.85-12.92-12.08C455.65,157.52,454.09,151.32,454.09,144.13z M471.47,144.29c0,3.9,0.82,7.38,2.46,10.46
		c1.64,3.08,3.87,5.54,6.69,7.39c2.82,1.85,6.02,2.77,9.62,2.77c3.79,0,7.1-0.92,9.92-2.77c2.82-1.85,5.05-4.31,6.69-7.39
		c1.64-3.08,2.46-6.56,2.46-10.46c0-3.9-0.82-7.39-2.46-10.46c-1.64-3.08-3.87-5.54-6.69-7.39c-2.82-1.85-6.08-2.77-9.77-2.77
		c-3.59,0-6.82,0.92-9.69,2.77c-2.87,1.85-5.13,4.33-6.77,7.46C472.29,137.03,471.47,140.5,471.47,144.29z"/>
	<path class="st1" d="M537.79,57.36h17.23v120.01h-17.23V57.36z"/>
	<path class="st1" d="M598.71,179.06c-6.15,0-11.72-1.28-16.69-3.85c-4.98-2.56-8.9-6.38-11.77-11.46
		c-2.87-5.08-4.31-11.36-4.31-18.85c0-7.39,1.51-13.72,4.54-19c3.02-5.28,7.03-9.36,12-12.23c4.97-2.87,10.39-4.31,16.23-4.31
		c6.26,0,11.28,1.23,15.08,3.69c3.79,2.46,6.82,5.39,9.08,8.77l-0.92,2.46l1.69-12h16v65.08h-17.39v-15.85l1.69,4.15
		c-0.41,0.62-1.21,1.62-2.38,3c-1.18,1.38-2.87,2.9-5.08,4.54c-2.21,1.64-4.77,3.03-7.69,4.15
		C605.87,178.5,602.51,179.06,598.71,179.06z M603.49,164.91c3.08,0,5.9-0.54,8.46-1.62c2.56-1.08,4.72-2.67,6.46-4.77
		c1.74-2.1,3.02-4.59,3.85-7.46V136.9c-0.82-2.67-2.18-5-4.08-7c-1.9-2-4.15-3.56-6.77-4.69c-2.62-1.13-5.46-1.69-8.54-1.69
		c-3.59,0-6.87,0.87-9.85,2.62c-2.98,1.75-5.33,4.15-7.08,7.23c-1.75,3.08-2.62,6.62-2.62,10.62c0,3.9,0.92,7.44,2.77,10.62
		c1.85,3.18,4.28,5.69,7.31,7.54C596.43,163.98,599.79,164.91,603.49,164.91z"/>
	<path class="st1" d="M671.03,163.98c-2.26,5.33-4.49,10.67-6.69,16c-2.21,5.33-4.44,10.67-6.69,16h-13.85
		c2.05-5.33,4.05-10.67,6-16c1.95-5.33,3.95-10.67,6-16H671.03z"/>
	<path class="st1" d="M741.8,178.75c-4.92,0-9.62-0.87-14.08-2.62c-4.46-1.74-8.18-4.26-11.16-7.54l7.23-9.85
		c2.87,2.67,5.72,4.67,8.54,6c2.82,1.33,5.51,2,8.08,2c1.95,0,3.72-0.23,5.31-0.69c1.59-0.46,2.85-1.21,3.77-2.23
		c0.92-1.02,1.38-2.36,1.38-4c0-2.15-0.69-3.79-2.08-4.92c-1.38-1.13-3.21-2.08-5.46-2.85c-2.26-0.77-4.62-1.56-7.08-2.38
		c-5.64-1.74-9.85-4.31-12.62-7.69c-2.77-3.38-4.15-7.33-4.15-11.85c0-3.28,0.87-6.51,2.62-9.69c1.74-3.18,4.38-5.77,7.92-7.77
		s8.08-3,13.62-3c4.82,0,9.08,0.56,12.77,1.69c3.69,1.13,7.13,2.92,10.31,5.38l-6.62,10.46c-1.85-1.74-4.03-3.13-6.54-4.15
		c-2.51-1.02-4.8-1.59-6.85-1.69c-1.85-0.1-3.49,0.15-4.92,0.77c-1.44,0.62-2.62,1.41-3.54,2.38c-0.92,0.98-1.38,2.13-1.38,3.46
		c-0.1,2.05,0.62,3.69,2.15,4.92c1.54,1.23,3.51,2.21,5.92,2.92c2.41,0.72,4.74,1.49,7,2.31c3.18,1.03,5.97,2.31,8.39,3.85
		c2.41,1.54,4.33,3.49,5.77,5.85c1.44,2.36,2.15,5.23,2.15,8.62c0,3.9-0.98,7.54-2.92,10.92c-1.95,3.38-4.85,6.13-8.69,8.23
		C752.8,177.7,747.86,178.75,741.8,178.75z"/>
	<path class="st1" d="M774.73,144.13c0-6.56,1.56-12.46,4.69-17.69c3.13-5.23,7.46-9.38,13-12.46c5.54-3.08,11.9-4.62,19.08-4.62
		c7.18,0,13.46,1.54,18.85,4.62c5.39,3.08,9.56,7.23,12.54,12.46c2.97,5.23,4.46,11.08,4.46,17.54c0,6.67-1.49,12.64-4.46,17.92
		c-2.98,5.28-7.15,9.46-12.54,12.54c-5.38,3.08-11.82,4.62-19.31,4.62c-6.98,0-13.21-1.41-18.69-4.23
		c-5.49-2.82-9.8-6.85-12.92-12.08C776.29,157.52,774.73,151.32,774.73,144.13z M792.12,144.29c0,3.9,0.82,7.38,2.46,10.46
		c1.64,3.08,3.87,5.54,6.69,7.39c2.82,1.85,6.02,2.77,9.62,2.77c3.79,0,7.1-0.92,9.92-2.77c2.82-1.85,5.05-4.31,6.69-7.39
		c1.64-3.08,2.46-6.56,2.46-10.46c0-3.9-0.82-7.39-2.46-10.46c-1.64-3.08-3.87-5.54-6.69-7.39c-2.82-1.85-6.08-2.77-9.77-2.77
		c-3.59,0-6.82,0.92-9.69,2.77c-2.87,1.85-5.13,4.33-6.77,7.46C792.93,137.03,792.12,140.5,792.12,144.29z"/>
	<path class="st1" d="M878.28,177.83l-31.7-65.55h19.39l25.54,56.78L878.28,177.83z M861.66,208.6l42.93-96.32h15.85l-42,96.32
		H861.66z"/>
</g>
<g>
	<path class="st1" d="M1236.1,581.71c-14.68,0-26.45-4.34-35.26-13.01c-8.81-8.71-13.5-20-14.03-33.89V420.57h18.82v108.62
		c0.55,10.18,3.82,18.59,9.82,25.25c6.03,6.69,15.04,10.31,27.07,10.83c10.14,0,19.64-2.67,28.44-8.02
		c8.84-5.32,15.98-12.62,21.46-21.82c5.48-9.23,8.22-19.7,8.22-31.48v-83.37h18.82v156.73h-16.83l-1.99-49.32l2.81,10.83
		c-2.67,8.02-7.44,15.3-14.25,21.85c-6.78,6.56-14.81,11.68-24.04,15.43C1255.96,579.85,1246.28,581.71,1236.1,581.71z
		 M1285.81,334.39l-42.5,53.33h-13.6l34.87-53.33H1285.81z"/>
</g>
<g>
	<path class="st1" d="M1034.98,151.15v-4.33l39.25-47.1l10.29,5.96l0.27,2.71l-33.56,40.33l33.56,40.33l-0.27,2.44l-10.29,5.96
		L1034.98,151.15z"/>
	<path class="st1" d="M1283.18,145.73v4.33l-39.25,47.1l-10.29-5.96l-0.27-2.71l33.56-40.33l-33.56-40.33l0.27-2.44l10.29-5.96
		L1283.18,145.73z"/>
</g>
<g>
	<g>
		<path class="st2" d="M1307.51,89.52c0-10.28,0.22-20.56-0.2-30.82c-0.14-3.3-1.44-6.89-3.24-9.7c-3.22-5.04-8.34-7.11-14.39-7.11
			c-50.27,0.04-100.54,0.02-150.81,0.02c-36.31,0-72.62-0.04-108.92,0.06c-2.86,0.01-5.99,0.37-8.54,1.56
			c-7.38,3.45-10.16,9.8-10.15,17.73c0.04,42.81,0.02,85.63,0.02,128.44c0,14.34,0.01,28.68,0.01,43.02
			c0,10.2,7.91,18.24,17.88,17.99c5.6-0.14,11.21-0.08,16.82-0.01c10.14,0.13,17.7,7.8,17.71,17.91c0.01,13.6,0,27.21,0,40.81
			c0,0.97,0,1.93,0,3.4c0.78-0.61,1.14-0.83,1.44-1.13c6.87-6.87,13.73-13.76,20.6-20.63c10.5-10.5,21.11-20.9,31.47-31.53
			c4.96-5.09,10.1-9.06,17.76-8.92c14.04,0.24,28.09,0.09,42.14,0.09c37.14,0,74.27,0.01,111.41-0.06c2.62,0,5.46-0.12,7.83-1.08
			c7.6-3.1,11.19-9.08,11.19-17.27c-0.02-15.51-0.01-31.03-0.01-46.54C1307.51,153.68,1307.52,121.6,1307.51,89.52z"/>
		<path class="st1" d="M1112.68,132.2c-7.9-0.11-14.3,6.48-14.25,13.91c-0.02,8.01,6.17,14.29,14.24,14.27
			c7.47-0.01,14-6.12,13.95-14.08C1126.57,138.52,1120.44,132.31,1112.68,132.2z"/>
		<path class="st1" d="M1206.39,132.23c-7.78-0.03-14.12,6.18-14.15,13.87c-0.04,7.78,6.2,14.25,13.77,14.29
			c8.03,0.05,14.43-6.11,14.46-13.91C1220.51,138.5,1214.35,132.26,1206.39,132.23z"/>
		<path class="st1" d="M1159.51,132.24c-7.85-0.02-14.11,6.13-14.16,13.89c-0.05,7.85,6.21,14.24,13.97,14.27
			c7.93,0.03,14.15-6.12,14.18-14.01C1173.53,138.41,1167.45,132.26,1159.51,132.24z"/>
	</g>
	<g>
		<path class="st2" d="M1168.08,6.67C1168.08,6.67,1168.08,6.66,1168.08,6.67l-39.11-0.01c11.64,0,23.29,0.01,34.93,0.01
			C1165.17,6.67,1166.44,6.67,1168.08,6.67z"/>
		<path class="st2" d="M1307.51,89.52c0-10.28,0.22-20.56-0.2-30.82c-0.14-3.3-1.44-6.89-3.24-9.7c-3.22-5.04-8.34-7.11-14.39-7.11
			c-50.27,0.04-100.54,0.02-150.81,0.02c-36.31,0-72.62-0.04-108.92,0.06c-2.86,0.01-5.99,0.37-8.54,1.56
			c-7.38,3.45-10.16,9.8-10.15,17.73c0.04,42.81,0.02,85.63,0.02,128.44c0,14.34,0.01,28.68,0.01,43.02
			c0,10.2,7.91,18.24,17.88,17.99c5.6-0.14,11.21-0.08,16.82-0.01c10.14,0.13,17.7,7.8,17.71,17.91c0.01,13.6,0,27.21,0,40.81
			c0,0.97,0,1.93,0,3.4c0.78-0.61,1.14-0.83,1.44-1.13c6.87-6.87,13.73-13.76,20.6-20.63c10.5-10.5,21.11-20.9,31.47-31.53
			c4.96-5.09,10.1-9.06,17.76-8.92c14.04,0.24,28.09,0.09,42.14,0.09c37.14,0,74.27,0.01,111.41-0.06c2.62,0,5.46-0.12,7.83-1.08
			c7.6-3.1,11.19-9.08,11.19-17.27c-0.02-15.51-0.01-31.03-0.01-46.54C1307.51,153.68,1307.52,121.6,1307.51,89.52z"/>
		<path class="st2" d="M1246.84,6.66c12.15,0,24.31,0.01,36.46,0.03c4.31,0.01,8.65,0.06,12.92,0.54
			c14.71,1.63,26.54,8.55,35.56,20.22c6.83,8.84,10,18.78,10.63,29.64V6.66H1246.84z"/>
		<path class="st2" d="M1203.27,6.67c1.54,0,2.73,0,3.92,0c10.16,0,20.33,0,30.49,0L1203.27,6.67
			C1203.27,6.66,1203.27,6.66,1203.27,6.67z"/>
		<path d="M1237.68,6.66h9.16C1243.79,6.66,1240.73,6.66,1237.68,6.66z"/>
		<path d="M1058.86,6.66h70.12C1105.6,6.65,1082.23,6.64,1058.86,6.66z"/>
		<linearGradient id="SVGID_1_" gradientUnits="userSpaceOnUse" x1="976.4896" y1="189.7984" x2="1342.4148" y2="189.7984">
			<stop  offset="0" style="stop-color:#29235C"/>
			<stop  offset="0.9987" style="stop-color:#D92CF9"/>
		</linearGradient>
		<path class="st4" d="M1331.79,27.44c-9.02-11.67-20.84-18.59-35.56-20.22c-4.28-0.47-8.61-0.53-12.92-0.54
			c-12.15-0.02-24.31-0.03-36.46-0.03h-9.16c-10.16,0-20.33,0-30.49,0c-1.19,0-2.37,0-3.92,0c0,0,0,0,0,0h-35.19c0,0,0,0.01,0,0.01
			c-1.64,0-2.91,0-4.17,0c-11.64,0-23.29,0-34.93-0.01h-70.12c-9.94,0.01-19.87,0.02-29.81,0.04c-14.09,0.03-26.57,4.83-36.6,14.72
			c-10.4,10.26-15.98,22.82-15.95,37.71c0.07,46.61,0.03,93.22,0.03,139.83c0,8.36-0.11,16.72,0.02,25.07
			c0.1,6.51-0.14,13.11,0.89,19.49c1.73,10.69,6.94,19.88,14.76,27.4c6.79,6.53,14.66,11.31,24.01,13.25
			c4.02,0.84,8.1,1.36,12.47,2.08c0,0.86,0,1.85,0,2.84c0,21.6,0,43.2,0.01,64.8c0,1.38-0.06,2.78,0.18,4.12
			c1.25,6.86,5.02,11.68,11.77,13.89c6.37,2.09,12.27,1.05,17.12-3.55c7.24-6.87,14.23-14.01,21.28-21.07
			c9.98-10,19.91-20.05,29.89-30.04c9.91-9.93,19.82-19.87,29.85-29.69c1.03-1.01,2.85-1.7,4.31-1.71
			c19.75-0.11,39.49-0.08,59.24-0.08c28.77,0,57.55-0.05,86.32,0.02c11.04,0.03,21.24-2.53,30.41-8.82
			c13.93-9.55,22.3-22.68,23.09-39.54c0.1-2.12,0.18-4.23,0.24-6.35v-174C1341.78,46.23,1338.62,36.28,1331.79,27.44z
			 M1307.52,232.31c0.01,8.19-3.59,14.16-11.19,17.27c-2.37,0.97-5.21,1.08-7.83,1.08c-37.13,0.07-74.27,0.06-111.41,0.06
			c-14.05,0-28.1,0.15-42.14-0.09c-7.66-0.13-12.79,3.83-17.76,8.92c-10.36,10.63-20.97,21.03-31.47,31.53
			c-6.87,6.87-13.73,13.76-20.6,20.63c-0.29,0.29-0.65,0.52-1.44,1.13c0-1.47,0-2.43,0-3.4c0-13.6,0.01-27.21,0-40.81
			c-0.01-10.11-7.57-17.78-17.71-17.91c-5.61-0.07-11.22-0.14-16.82,0.01c-9.97,0.25-17.88-7.79-17.88-17.99
			c0-14.34-0.01-28.68-0.01-43.02c0-42.81,0.02-85.63-0.02-128.44c-0.01-7.93,2.76-14.28,10.15-17.73c2.55-1.19,5.67-1.55,8.54-1.56
			c36.31-0.1,72.62-0.06,108.92-0.06c50.27,0,100.54,0.02,150.81-0.02c6.05,0,11.17,2.07,14.39,7.11c1.79,2.8,3.1,6.4,3.24,9.7
			c0.43,10.26,0.2,20.55,0.2,30.82c0.01,32.08,0,64.16,0,96.24C1307.51,201.28,1307.5,216.79,1307.52,232.31z"/>
	</g>
</g>
<path class="st1" d="M924.58,325.98c-8.29-4.01-18.43-7.73-30.47-11.22c-12-3.46-24.04-5.19-36.08-5.19
	c-18.69,0-33.66,4.66-44.88,14.03c-11.22,9.33-16.83,21.1-16.83,35.26c0,10.7,3.2,19.57,9.62,26.65
	c6.39,7.08,14.81,13.11,25.25,18.04c10.41,4.96,21.5,9.69,33.27,14.22c9.33,3.49,18.63,7.37,27.86,11.64
	c9.2,4.27,17.55,9.46,25.05,15.62c7.47,6.13,13.41,13.77,17.84,22.83c4.4,9.1,6.59,20.32,6.59,33.66c0,15.79-3.72,29.75-11.22,41.92
	c-7.47,12.13-17.91,21.56-31.25,28.25c-13.37,6.69-28.87,10.01-46.51,10.01c-14.16,0-27.04-1.73-38.65-5.22
	c-11.64-3.46-21.79-7.53-30.47-12.2c-8.71-4.7-15.59-8.64-20.65-11.84l9.23-16.02c5.87,4.27,13.01,8.55,21.43,12.82
	c8.42,4.27,17.58,7.86,27.47,10.83c9.88,2.94,19.77,4.4,29.65,4.4c11.48,0,22.64-2.28,33.47-6.82
	c10.83-4.53,19.77-11.42,26.85-20.65s10.63-20.91,10.63-35.07c0-13.63-3.36-24.66-10.01-33.08c-6.69-8.42-15.23-15.3-25.67-20.65
	c-10.41-5.35-21.5-10.14-33.27-14.42c-9.07-3.49-18.17-7.14-27.24-11.03c-9.1-3.88-17.39-8.55-24.86-14.03
	c-7.47-5.48-13.44-12.1-17.84-19.83c-4.4-7.76-6.62-17.12-6.62-28.08c0-13.6,3.49-25.51,10.44-35.65s16.37-18.1,28.25-23.84
	c11.91-5.74,25.48-8.77,40.68-9.04c13.37,0,26.94,1.73,40.71,5.22c13.77,3.46,25.7,7.89,35.88,13.21L924.58,325.98z"/>
<path class="st1" d="M1051.6,581.71c-14.94,0-28.51-3.39-40.64-10.21c-12.17-6.82-21.79-16.37-28.87-28.67s-10.63-26.58-10.63-42.89
	c0-17.35,3.75-32.26,11.25-44.69c7.47-12.43,17.61-21.89,30.43-28.44c12.82-6.56,27.37-9.82,43.68-9.82
	c13.9,0,27.07,4.14,39.47,12.43c12.46,8.29,21.33,18.69,26.68,31.25l-2.81,5.61l2.41-44.49h16.83v156.73h-18.85v-48.5l4.04,7.21
	c-1.89,5.35-5.09,10.63-9.66,15.82c-4.57,5.22-10.11,10.05-16.64,14.45c-6.52,4.4-13.77,7.89-21.66,10.41
	C1068.82,580.44,1060.47,581.71,1051.6,581.71z M1055.64,565.69c11.74,0,22.38-2.48,31.84-7.44c9.52-4.93,17.16-11.81,23.09-20.65
	c5.87-8.81,9.2-18.95,9.98-30.47V484.7c-2.15-9.88-6.33-18.69-12.59-26.45c-6.33-7.73-13.96-13.9-23.09-18.43
	c-9.07-4.53-18.98-6.82-29.62-6.82c-11.81,0-22.57,2.74-32.49,8.22c-9.88,5.48-17.78,13.18-23.65,23.06s-8.81,21.5-8.81,34.87
	c0,12.3,2.94,23.45,8.81,33.47c5.87,10.01,13.83,18.04,23.84,24.04C1033.01,562.66,1043.9,565.69,1055.64,565.69z"/>
<path class="st1" d="M1377.1,273.88h18.82v304.63h-18.82V273.88z"/>
<path class="st1" d="M124.82,504.06c37.66,0,67.61,7.6,89.88,22.83c22.27,15.23,33.43,37.9,33.43,68.05
	c0,22.27-5.48,40.86-16.47,55.78c-10.96,14.91-25.87,26.03-44.7,33.39c-18.83,7.4-40.38,11.08-64.61,11.08l-11.28-38.34
	c29.79,0,56.22,4.12,79.33,12.31c23.11,8.16,41.34,19.87,54.78,35.1c13.43,15.23,20.15,33.51,20.15,54.78
	c0,19.67-3.52,36.3-10.56,49.86c-7.08,13.63-16.55,24.59-28.51,32.95c-11.95,8.36-25.47,14.39-40.54,18.15
	c-15.07,3.8-30.63,5.68-46.66,5.68H18.67v-361.6H124.82z M133.14,651.92c14.11,0,24.51-4.24,31.23-12.75
	c6.72-8.52,10.08-18.19,10.08-28.99c0-12.43-4.2-21.79-12.55-27.99c-8.36-6.24-19.55-9.36-33.63-9.36H89.92v79.09H133.14z
	 M135.62,799.33c10.48,0,19.95-1.4,28.51-4.2c8.52-2.76,15.23-7.2,20.11-13.23c4.92-6.08,7.4-13.67,7.4-22.87
	c0-10.48-2.96-18.43-8.84-23.83c-5.92-5.4-13.51-9.16-22.87-11.28c-9.32-2.16-19.07-3.2-29.23-3.2H89.92v78.61H135.62z"/>
<path class="st1" d="M407.82,871.54c-26.23,0-48.42-4.92-66.57-14.71c-18.19-9.84-32.03-23.43-41.54-40.78
	c-9.48-17.35-14.23-37.34-14.23-59.93c0-21.63,5.56-41.1,16.71-58.49c11.12-17.35,26.03-31.19,44.7-41.5
	c18.67-10.32,39.46-15.47,62.41-15.47c30.75,0,56.06,8.92,75.89,26.79c19.83,17.83,32.67,43.62,38.58,77.37l-167.05,53.06
	l-15.23-37.34l120.87-40.78l-14.27,6.4c-2.6-8.52-7.28-15.95-13.99-22.35c-6.72-6.4-16.79-9.6-30.23-9.6
	c-10.16,0-19.07,2.4-26.75,7.12c-7.72,4.76-13.59,11.47-17.71,20.15c-4.08,8.68-6.12,18.91-6.12,30.71
	c0,13.43,2.44,24.67,7.36,33.67c4.92,9,11.63,15.79,20.15,20.39c8.52,4.6,17.99,6.88,28.51,6.88c7.52,0,14.79-1.32,21.83-3.92
	c7.04-2.64,14.03-6.08,20.91-10.32l30.43,51.1c-11.43,6.56-23.83,11.75-37.06,15.71C432.13,869.58,419.61,871.54,407.82,871.54z"/>
<path class="st1" d="M550.75,478.03h68.77v387.63h-68.77V478.03z"/>
<path class="st1" d="M808.2,871.54c-17.99,0-33.15-3.04-45.42-9.08c-12.27-6.08-23.03-13.99-32.19-23.83l5.4-14.75v41.78h-68.77
	V478.03h68.29v209.75v-22.07c8.52-7.24,19.79-13.27,33.91-18.19c14.07-4.92,30.11-7.36,48.14-7.36c18.67,0,35.7,4.4,51.1,13.23
	c15.39,8.88,27.75,21.71,37.1,38.58c9.32,16.87,13.99,37.42,13.99,61.65s-5.16,45.22-15.47,62.89s-23.99,31.27-41.02,40.78
	C846.22,866.78,827.87,871.54,808.2,871.54z M792.97,813.57c10.16,0,19.59-2.6,28.27-7.84c8.68-5.24,15.63-12.47,20.87-21.63
	c5.24-9.16,7.88-19.47,7.88-30.95s-2.64-21.63-7.88-30.47c-5.24-8.84-12.19-15.79-20.87-20.87c-8.68-5.08-18.11-7.64-28.27-7.64
	c-8.84,0-17.11,1.4-24.79,4.2c-7.72,2.76-14.23,6.72-19.67,11.79c-5.4,5.08-9.56,11.2-12.51,18.39v52.58
	c3.92,7.24,8.6,13.19,13.99,17.95c5.4,4.76,11.71,8.36,18.91,10.8C776.1,812.37,784.13,813.57,792.97,813.57z"/>
<path class="st1" d="M1056.33,871.54c-26.23,0-48.42-4.92-66.57-14.71c-18.19-9.84-32.03-23.43-41.54-40.78
	c-9.48-17.35-14.23-37.34-14.23-59.93c0-21.63,5.56-41.1,16.71-58.49c11.12-17.35,26.03-31.19,44.7-41.5
	c18.67-10.32,39.46-15.47,62.41-15.47c30.75,0,56.06,8.92,75.89,26.79c19.83,17.83,32.67,43.62,38.58,77.37l-167.05,53.06
	L990,760.51l120.87-40.78l-14.27,6.4c-2.6-8.52-7.28-15.95-13.99-22.35c-6.72-6.4-16.79-9.6-30.23-9.6
	c-10.16,0-19.07,2.4-26.75,7.12c-7.72,4.76-13.59,11.47-17.71,20.15c-4.08,8.68-6.12,18.91-6.12,30.71
	c0,13.43,2.44,24.67,7.36,33.67c4.92,9,11.63,15.79,20.15,20.39c8.52,4.6,17.99,6.88,28.51,6.88c7.52,0,14.79-1.32,21.83-3.92
	c7.04-2.64,14.03-6.08,20.91-10.32l30.43,51.1c-11.43,6.56-23.83,11.75-37.06,15.71C1080.64,869.58,1068.13,871.54,1056.33,871.54z"
	/>
<path class="st1" d="M1273.96,866.62L1168.8,650.96h77.13l81.08,181.28L1273.96,866.62z M1216.46,968.82l142.98-317.86h61.89
	l-138.54,317.86H1216.46z"/>
</svg>
