<?xml version="1.0" standalone="no"?>
<!DOCTYPE svg PUBLIC "-//W3C//DTD SVG 20010904//EN"
 "http://www.w3.org/TR/2001/REC-SVG-20010904/DTD/svg10.dtd">
<svg version="1.0" xmlns="http://www.w3.org/2000/svg"
 width="261.000000pt" height="261.000000pt" viewBox="0 0 261.000000 261.000000"
 preserveAspectRatio="xMidYMid meet">
<metadata>
Created by potrace 1.14, written by Peter Selinger 2001-2017
</metadata>
<g transform="translate(0.000000,261.000000) scale(0.100000,-0.100000)"
fill="#000000" stroke="none">
<path d="M327 2578 c-116 -16 -234 -112 -278 -226 l-23 -57 0 -690 0 -690 31
-65 c17 -36 42 -77 55 -91 58 -64 142 -107 240 -123 l37 -7 0 -177 c0 -97 0
-213 1 -258 0 -67 4 -87 23 -115 27 -40 85 -61 132 -47 20 5 128 106 327 305
l298 298 547 1 c302 0 564 4 583 8 100 23 204 109 249 205 l26 56 3 673 c2
587 1 682 -13 735 -32 126 -117 213 -250 258 -32 10 -227 13 -990 14 -522 0
-972 -3 -998 -7z m1955 -263 c53 -39 53 -31 52 -710 0 -568 -1 -633 -16 -661
-34 -63 -24 -62 -654 -62 -434 1 -576 -2 -595 -12 -13 -7 -116 -104 -229 -216
l-205 -204 0 174 c-1 146 -4 177 -18 199 -28 43 -69 58 -160 59 -95 0 -136 14
-166 56 -21 30 -21 31 -21 670 l0 639 23 34 c13 19 37 39 56 45 23 8 318 11
970 10 920 -1 936 -1 963 -21z"/>
<path d="M992 1945 c-92 -21 -144 -96 -122 -176 14 -50 43 -73 147 -118 118
-51 130 -59 148 -97 20 -43 19 -83 -5 -121 -42 -70 -142 -86 -244 -40 -57 26
-76 27 -76 4 0 -30 121 -74 196 -72 105 3 183 69 186 156 3 99 -24 140 -124
183 -169 73 -198 99 -182 163 18 74 123 106 228 68 42 -15 56 -12 56 10 0 14
-49 34 -103 41 -18 3 -36 6 -42 8 -5 2 -34 -3 -63 -9z"/>
<path d="M1326 1648 c1 -172 2 -317 3 -323 1 -11 217 -12 278 0 94 17 153 83
155 174 2 57 -23 106 -68 136 l-30 20 28 30 c52 56 53 163 0 218 -39 41 -107
57 -246 57 l-121 0 1 -312z m255 166 c25 -22 24 -69 -1 -94 -15 -15 -33 -20
-73 -20 l-54 0 3 68 c1 37 3 67 3 68 1 1 24 0 52 -2 31 -2 59 -10 70 -20z m19
-259 c51 -26 36 -97 -23 -110 -47 -9 -117 -10 -118 0 -4 31 -5 112 -2 121 6
16 106 8 143 -11z"/>
<path d="M576 1724 c-53 -64 -96 -124 -96 -133 0 -9 10 -27 23 -41 12 -14 55
-64 96 -112 40 -49 78 -88 85 -88 15 1 46 25 46 37 0 5 -8 18 -18 29 -44 48
-142 172 -142 178 0 7 65 91 98 124 26 28 62 79 62 89 0 8 -41 33 -54 33 -2 0
-46 -52 -100 -116z"/>
<path d="M1888 1826 c-10 -7 -18 -17 -18 -22 1 -5 38 -54 84 -108 l84 -99 -84
-101 c-46 -55 -84 -105 -84 -111 0 -10 40 -35 55 -35 11 0 195 235 195 249 0
20 -187 241 -203 241 -7 0 -20 -7 -29 -14z"/>
</g>
</svg>
